/* XPM */
static char * icon128[]={
"32 32 3 1",
/* colors */
"   c  #000000",
".  c  #ffffff",
"X  c  None",
/* pixels */
"XXX  XXXXXXXXXXXXXXXXXXXXXX  XXX",
"XX .. XXX     XXXX     XXX  . XX",
"XX .  XXX   . XXXX   . XXX  . XX",
"XX .                        . XX",
"XX . .                    . . XX",
"XX .                        . XX",
"XX . .                    . . XX",
"XX .     .                  . XX",
"XX . .   .                . . XX",
"XX .     .....              . XX",
"XX . .  ....  ......  .   . . XX",
"XX .    .....       ...     . XX",
"XX . .   .. ..      ...   . . XX",
"XX .     ... .  .  .  .     . XX",
"XX . .   ...   ...    .   . . XX",
"XX .      ..   ...   .      . XX",
"XX . .    ..    .    ..   . . XX",
"XX .      .. ..   .  .      . XX",
"XX . .    ....    ..  .   . . XX",
"XX .       ..      .. .     . XX",
"XX . .     ....     ...   . . XX",
"XX .       ..  ........     . XX",
"XX . .     ..             . . XX",
"XX .       ..               . XX",
"XX . .     ...            . . XX",
"XX .        ..              . XX",
"XX . .      ..            . . XX",
"XX .        ..              . XX",
"XX . .      ..            . . XX",
"XX .                        . XX",
"XX . .                    . . XX",
"XX                            XX"}
